<mxfile host="app.diagrams.net" modified="2022-04-01T02:28:36.328Z" agent="5.0 (Windows NT 10.0; Win64; x64) AppleWebKit/537.36 (KHTML, like Gecko) Chrome/99.0.4844.74 Safari/537.36 Edg/99.0.1150.55" etag="aWcS66YqE9dipCPolQHE" version="17.2.5" type="github">
  <diagram id="0l4SorjJTBxCJO2c23fn" name="Page-1">
    <mxGraphModel dx="1038" dy="579" grid="1" gridSize="10" guides="1" tooltips="1" connect="1" arrows="1" fold="1" page="1" pageScale="1" pageWidth="850" pageHeight="1100" math="0" shadow="0">
      <root>
        <mxCell id="0" />
        <mxCell id="1" parent="0" />
        <mxCell id="gtDhDPGLx0RCa82Sfsb0-3" value="" style="edgeStyle=orthogonalEdgeStyle;rounded=0;orthogonalLoop=1;jettySize=auto;html=1;" edge="1" parent="1" source="gtDhDPGLx0RCa82Sfsb0-1" target="gtDhDPGLx0RCa82Sfsb0-2">
          <mxGeometry relative="1" as="geometry" />
        </mxCell>
        <mxCell id="gtDhDPGLx0RCa82Sfsb0-19" style="edgeStyle=orthogonalEdgeStyle;rounded=0;orthogonalLoop=1;jettySize=auto;html=1;" edge="1" parent="1" source="gtDhDPGLx0RCa82Sfsb0-1" target="gtDhDPGLx0RCa82Sfsb0-18">
          <mxGeometry relative="1" as="geometry" />
        </mxCell>
        <mxCell id="gtDhDPGLx0RCa82Sfsb0-1" value="Store neccessary Json" style="rounded=1;whiteSpace=wrap;html=1;" vertex="1" parent="1">
          <mxGeometry x="320" y="70" width="120" height="60" as="geometry" />
        </mxCell>
        <mxCell id="gtDhDPGLx0RCa82Sfsb0-7" value="" style="edgeStyle=orthogonalEdgeStyle;rounded=0;orthogonalLoop=1;jettySize=auto;html=1;" edge="1" parent="1" source="gtDhDPGLx0RCa82Sfsb0-2" target="gtDhDPGLx0RCa82Sfsb0-4">
          <mxGeometry relative="1" as="geometry" />
        </mxCell>
        <mxCell id="gtDhDPGLx0RCa82Sfsb0-2" value="I = 0&amp;nbsp;" style="rounded=1;whiteSpace=wrap;html=1;" vertex="1" parent="1">
          <mxGeometry x="320" y="170" width="120" height="60" as="geometry" />
        </mxCell>
        <mxCell id="gtDhDPGLx0RCa82Sfsb0-9" value="" style="edgeStyle=orthogonalEdgeStyle;rounded=0;orthogonalLoop=1;jettySize=auto;html=1;" edge="1" parent="1" source="gtDhDPGLx0RCa82Sfsb0-4" target="gtDhDPGLx0RCa82Sfsb0-8">
          <mxGeometry relative="1" as="geometry" />
        </mxCell>
        <mxCell id="gtDhDPGLx0RCa82Sfsb0-4" value="I&amp;lt;3" style="rhombus;whiteSpace=wrap;html=1;" vertex="1" parent="1">
          <mxGeometry x="340" y="260" width="80" height="80" as="geometry" />
        </mxCell>
        <mxCell id="gtDhDPGLx0RCa82Sfsb0-17" value="" style="edgeStyle=orthogonalEdgeStyle;rounded=0;orthogonalLoop=1;jettySize=auto;html=1;" edge="1" parent="1" source="gtDhDPGLx0RCa82Sfsb0-8" target="gtDhDPGLx0RCa82Sfsb0-10">
          <mxGeometry relative="1" as="geometry" />
        </mxCell>
        <mxCell id="gtDhDPGLx0RCa82Sfsb0-8" value="client1 deck i = cardIds&lt;br&gt;client2 deck i = cardIds" style="rounded=1;whiteSpace=wrap;html=1;" vertex="1" parent="1">
          <mxGeometry x="320" y="370" width="120" height="60" as="geometry" />
        </mxCell>
        <mxCell id="gtDhDPGLx0RCa82Sfsb0-10" value="I++" style="rounded=1;whiteSpace=wrap;html=1;" vertex="1" parent="1">
          <mxGeometry x="320" y="470" width="120" height="60" as="geometry" />
        </mxCell>
        <mxCell id="gtDhDPGLx0RCa82Sfsb0-16" value="yes" style="endArrow=classic;html=1;rounded=0;" edge="1" parent="1">
          <mxGeometry width="50" height="50" relative="1" as="geometry">
            <mxPoint x="320" y="490" as="sourcePoint" />
            <mxPoint x="380" y="240" as="targetPoint" />
            <Array as="points">
              <mxPoint x="200" y="490" />
              <mxPoint x="200" y="240" />
            </Array>
          </mxGeometry>
        </mxCell>
        <mxCell id="gtDhDPGLx0RCa82Sfsb0-18" value="split the entry exit point" style="rounded=1;whiteSpace=wrap;html=1;" vertex="1" parent="1">
          <mxGeometry x="510" y="170" width="120" height="60" as="geometry" />
        </mxCell>
      </root>
    </mxGraphModel>
  </diagram>
</mxfile>
